<?xml version="1.0" encoding="utf-8"?>
<!-- Generator: Adobe Illustrator 16.0.0, SVG Export Plug-In . SVG Version: 6.00 Build 0)  -->
<!DOCTYPE svg PUBLIC "-//W3C//DTD SVG 1.1//EN" "http://www.w3.org/Graphics/SVG/1.1/DTD/svg11.dtd">
<svg version="1.1" id="Layer_1" xmlns="http://www.w3.org/2000/svg" xmlns:xlink="http://www.w3.org/1999/xlink" x="0px" y="0px"
	 width="320px" height="320px" viewBox="0 0 320 320" enable-background="new 0 0 320 320" xml:space="preserve">
<ellipse transform="matrix(-0.5 0.866 -0.866 -0.5 382.3814 101.3977)" fill="#D1D3D4" stroke="#58595B" stroke-width="30" stroke-linecap="round" stroke-miterlimit="10" cx="161.92" cy="161.083" rx="138.122" ry="136.728"/>
<path fill="none" stroke="#808285" stroke-width="12" stroke-linecap="round" stroke-miterlimit="10" d="M300.346,177.165
	C199.638,63.596,72.499,91.807,31.714,114.447"/>
<path fill="none" stroke="#808285" stroke-width="12" stroke-linecap="round" stroke-miterlimit="10" d="M110.071,34.646
	c47.215,129.78,45.279,169.659,22.064,257.868"/>
<path fill="none" stroke="#808285" stroke-width="12" stroke-linecap="round" stroke-miterlimit="10" d="M260.135,70.812
	C253.417,242.447,131.35,245.873,39.14,229.586"/>
<path fill="none" stroke="#808285" stroke-width="12" stroke-linecap="round" stroke-miterlimit="10" d="M79.637,271.443
	c-20.21-140.996,51.502-201.206,136-235.561"/>
<ellipse transform="matrix(-0.5 0.866 -0.866 -0.5 619.2029 101.3978)" fill="#FFFFFF" stroke="#BCBEC0" stroke-width="5" stroke-linecap="square" stroke-miterlimit="10" cx="280.331" cy="229.447" rx="15.347" ry="15.192"/>
<path fill="#FFFFFF" stroke="#BCBEC0" stroke-width="5" stroke-linecap="square" stroke-miterlimit="10" d="M296.523,190.115
	c-8.359-0.846-14.397-8.354-13.48-16.764c0.915-8.412,8.438-14.545,16.798-13.698c8.361,0.846,14.399,8.353,13.482,16.765
	C312.407,184.828,304.886,190.961,296.523,190.115z"/>
<path fill="#FFFFFF" stroke="#BCBEC0" stroke-width="5" stroke-linecap="square" stroke-miterlimit="10" d="M297.117,132.473
	c-8.011,2.648-16.586-1.715-19.148-9.744c-2.565-8.027,1.852-16.684,9.862-19.332c8.012-2.648,16.585,1.716,19.149,9.744
	S305.127,129.824,297.117,132.473z"/>
<path fill="#FFFFFF" stroke="#BCBEC0" stroke-width="5" stroke-linecap="square" stroke-miterlimit="10" d="M274.332,79.775
	c-6.273,5.687-15.903,5.221-21.503-1.037c-5.603-6.256-5.055-15.939,1.221-21.623c6.275-5.686,15.904-5.219,21.505,1.039
	C281.155,64.41,280.607,74.092,274.332,79.775z"/>
<path fill="#FFFFFF" stroke="#BCBEC0" stroke-width="5" stroke-linecap="square" stroke-miterlimit="10" d="M232.109,41.139
	c-3.453,7.739-12.472,11.252-20.14,7.848c-7.67-3.402-11.087-12.439-7.632-20.176c3.455-7.74,12.475-11.252,20.144-7.848
	S235.565,33.4,232.109,41.139z"/>
<path fill="#FFFFFF" stroke="#BCBEC0" stroke-width="5" stroke-linecap="square" stroke-miterlimit="10" d="M177.753,23.242
	c-0.036,8.455-6.886,15.338-15.298,15.375c-8.411,0.038-15.2-6.787-15.164-15.242c0.037-8.453,6.889-15.338,15.299-15.375
	C171,7.964,177.789,14.787,177.753,23.242z"/>
<path fill="#FFFFFF" stroke="#BCBEC0" stroke-width="5" stroke-linecap="square" stroke-miterlimit="10" d="M120.656,29.178
	c3.39,7.709-0.106,16.773-7.807,20.244c-7.697,3.475-16.685,0.039-20.073-7.668c-3.388-7.709,0.109-16.773,7.807-20.247
	C108.281,18.035,117.269,21.469,120.656,29.178z"/>
<path fill="#FFFFFF" stroke="#BCBEC0" stroke-width="5" stroke-linecap="square" stroke-miterlimit="10" d="M70.695,57.923
	c6.228,5.628,6.689,15.307,1.034,21.613c-5.654,6.308-15.289,6.857-21.516,1.227c-6.227-5.629-6.688-15.308-1.033-21.614
	C54.837,52.841,64.47,52.291,70.695,57.923z"/>
<path fill="#FFFFFF" stroke="#BCBEC0" stroke-width="5" stroke-linecap="square" stroke-miterlimit="10" d="M36.507,104.504
	c7.99,2.576,12.33,11.193,9.694,19.246c-2.632,8.051-11.245,12.488-19.234,9.912s-12.33-11.193-9.695-19.246
	C19.906,106.363,28.519,101.925,36.507,104.504z"/>
<path fill="#FFFFFF" stroke="#BCBEC0" stroke-width="5" stroke-linecap="square" stroke-miterlimit="10" d="M24.005,160.869
	c8.368-0.922,15.837,5.145,16.678,13.551c0.846,8.401-5.258,15.96-13.63,16.881c-8.369,0.92-15.836-5.146-16.679-13.551
	C9.533,169.347,15.636,161.787,24.005,160.869z"/>
<path fill="#FFFFFF" stroke="#BCBEC0" stroke-width="5" stroke-linecap="square" stroke-miterlimit="10" d="M35.347,217.271
	c7.304-4.261,16.609-1.794,20.781,5.511c4.175,7.301,1.637,16.676-5.666,20.936c-7.303,4.259-16.608,1.791-20.782-5.512
	C25.507,230.902,28.044,221.528,35.347,217.271z"/>
<path fill="#FFFFFF" stroke="#BCBEC0" stroke-width="5" stroke-linecap="square" stroke-miterlimit="10" d="M68.576,263.959
	c4.973-6.863,14.508-8.424,21.29-3.48c6.783,4.934,8.249,14.504,3.273,21.364c-4.973,6.863-14.505,8.421-21.288,3.48
	C65.067,280.385,63.601,270.82,68.576,263.959z"/>
<path fill="#FFFFFF" stroke="#BCBEC0" stroke-width="5" stroke-linecap="square" stroke-miterlimit="10" d="M117.946,292.855
	c1.784-8.276,9.896-13.594,18.116-11.869c8.219,1.717,13.436,9.824,11.65,18.104c-1.786,8.276-9.896,13.591-18.116,11.87
	C121.376,309.238,116.161,301.133,117.946,292.855z"/>
<path fill="#FFFFFF" stroke="#BCBEC0" stroke-width="5" stroke-linecap="square" stroke-miterlimit="10" d="M174.92,298.971
	c-1.715-8.263,3.572-16.416,11.81-18.209c8.233-1.797,16.3,3.45,18.011,11.712c1.712,8.262-3.574,16.414-11.812,18.21
	C184.695,312.477,176.63,307.234,174.92,298.971z"/>
<path fill="#FFFFFF" stroke="#BCBEC0" stroke-width="5" stroke-linecap="square" stroke-miterlimit="10" d="M229.643,281.245
	c-4.913-6.82-3.365-16.402,3.464-21.398c6.823-5.003,16.345-3.526,21.258,3.294c4.913,6.816,3.363,16.396-3.463,21.396
	S234.557,288.062,229.643,281.245z"/>
<circle fill="#FCF9CE" stroke="#FFF200" stroke-width="9" stroke-linecap="square" stroke-miterlimit="10" cx="219.611" cy="194.392" r="24"/>
<circle fill="#E5CCE3" stroke="#7D449A" stroke-width="9" stroke-linecap="square" stroke-miterlimit="10" cx="210.764" cy="110.216" r="23.999"/>
<circle fill="#CFE5F7" stroke="#2E67B2" stroke-width="9" stroke-linecap="square" stroke-miterlimit="10" cx="127.973" cy="92.617" r="24"/>
<path fill="#FBCBCC" stroke="#CC2128" stroke-width="9" stroke-linecap="square" stroke-miterlimit="10" d="M83.146,142.049
	c13.179-1.385,24.99,8.178,26.376,21.359c1.385,13.182-8.178,24.992-21.361,26.378c-13.181,1.386-24.991-8.181-26.377-21.358
	C60.397,155.245,69.962,143.434,83.146,142.049z"/>
<circle fill="#D2EADC" stroke="#45B864" stroke-width="9" stroke-linecap="square" stroke-miterlimit="10" cx="142.288" cy="228.817" r="23.999"/>
</svg>
